<svg viewBox="0 0 512 512" width="100%" height="100%" xmlns="http://www.w3.org/2000/svg">
  <circle cx="256" cy="256" r="256" fill="#60a5fa"/>
  <g fill="#fff" opacity="0.8">
    <path d="M256,32C132.3,32,32,132.3,32,256s100.3,224,224,224,224-100.3,224-224S379.7,32,256,32Zm0,416c-106,0-192-86-192-192S150,64,256,64s192,86,192,192S362,448,256,448Z"/>
    <path d="M256,64c-106,0-192,86-192,192s86,192,192,192,192-86,192-192S362,64,256,64Zm0,352c-88.2,0-160-71.8-160-160S167.8,96,256,96s160,71.8,160,160S344.2,416,256,416Z"/>
  </g>
  <g fill="#1e293b" opacity="0.7">
    <!-- Africa/Europe/Asia -->
    <path d="M320,180c-10,0-20,10-30,10s-20-10-30-10-20,10-30,10-20-10-30-10-20,10-30,10v20c10,0,20,10,30,10s20-10,30-10,20,10,30,10,20-10,30-10,20,10,30,10v-20C340,190,330,180,320,180Z"/>
    <!-- North America -->
    <path d="M180,120c-10,0-20,10-30,10v20c10,0,20,10,30,10s20-10,30-10v-20C200,130,190,120,180,120Z"/>
    <!-- South America -->
    <path d="M180,320c-10,0-20,10-30,10v20c10,0,20,10,30,10s20-10,30-10v-20C200,330,190,320,180,320Z"/>
    <!-- Australia -->
    <ellipse cx="370" cy="370" rx="20" ry="10"/>
    <!-- India (approximate) -->
    <ellipse cx="290" cy="250" rx="10" ry="5"/>
  </g>
</svg>